<svg xmlns="http://www.w3.org/2000/svg" viewBox="0 0 341.3 310.64"><defs><style>.cls-1{fill:#fff;}</style></defs><title>logo-blue</title><g id="Ebene_2" data-name="Ebene 2"><g id="Ebene_1-2" data-name="Ebene 1"><polygon class="cls-1" points="341.3 144.51 334.35 188.86 283.45 188.86 270.88 310.64 239.03 310.64 226.82 188.86 112.32 188.86 105.34 310.64 71.22 310.64 62.32 188.86 6.08 188.86 0 144.51 341.3 144.51"/><path class="cls-1" d="M120.1,0" transform="translate(0 -7.22)"/><circle class="cls-1" cx="87.38" cy="41.66" r="32.4"/><circle class="cls-1" cx="255.77" cy="41.68" r="32.4"/><path class="cls-1" d="M171.22,7.22a37,37,0,1,0,37,37A37,37,0,0,0,171.22,7.22Z" transform="translate(0 -7.22)"/><path class="cls-1" d="M298.41,124.42v11.45a.6.6,0,0,1-.61.61H44.64a.62.62,0,0,1-.61-.61V124.42A31.07,31.07,0,0,1,75.11,93.36H99.53A31.09,31.09,0,0,1,129,114.54a31,31,0,0,1,29.45-21.18h24.41a31.14,31.14,0,0,1,30.05,23.08,31.06,31.06,0,0,1,30-23.08h24.44A31.06,31.06,0,0,1,298.41,124.42Z" transform="translate(0 -7.22)"/></g></g></svg>
