<svg xmlns="http://www.w3.org/2000/svg" viewBox="0 0 33.62 29.72"><defs><style>.cls-1{fill:#f9f7ef;}</style></defs><title>messageIcon</title><g id="Ebene_2" data-name="Ebene 2"><g id="Navbar"><path class="cls-1" d="M16.86,0H30.53c2.07,0,3.09,1,3.09,3.1q0,8.44,0,16.88c0,2.16-1,3.13-3.12,3.13-5.43,0-10.87,0-16.3,0a2.69,2.69,0,0,0-2.13.87c-1.76,1.83-3.57,3.6-5.36,5.38-.15.15-.29.42-.52.35S6,29.29,6,29.07c0-1.63,0-3.26,0-4.9,0-.93-.12-1-1.07-1-.73,0-1.46,0-2.19,0A2.56,2.56,0,0,1,0,20.4c0-2.27,0-4.53,0-6.8Q0,8.41,0,3.22C0,1,1,0,3.19,0Zm0,2.46H3.56c-.93,0-1.08.12-1.08,1,0,5.46,0,10.91,0,16.37,0,.69.28,1,1,.95,1.27,0,2.53,0,3.8,0s1.22.06,1.23,1.26c0,.44,0,.88,0,1.31,0,.17,0,.36.19.44s.32-.08.44-.2c.66-.65,1.35-1.28,2-2a2.48,2.48,0,0,1,2.05-.86c5.63,0,11.25,0,16.88,0,1.09,0,1.17-.08,1.17-1.16q0-8,0-15.93c0-1.11-.08-1.19-1.22-1.19Z"/><path class="cls-1" d="M9.35,9.69a1.87,1.87,0,1,1-1.88,1.83A1.87,1.87,0,0,1,9.35,9.69Z"/><path class="cls-1" d="M16.84,13.44a1.87,1.87,0,1,1,1.84-1.89A1.89,1.89,0,0,1,16.84,13.44Z"/><path class="cls-1" d="M24.27,13.44a1.87,1.87,0,1,1,1.86-1.86A1.88,1.88,0,0,1,24.27,13.44Z"/></g></g></svg>