<svg xmlns="http://www.w3.org/2000/svg" viewBox="0 0 25.02 28.4"><defs><style>.cls-1{fill:#f9f7ef;}</style></defs><title>Element 12</title><g id="Ebene_2" data-name="Ebene 2"><g id="Navbar"><path class="cls-1" d="M7.77,27,6,27.67c-.6.21-1.18.48-1.8.64a2.67,2.67,0,0,1-2.31-.44A3,3,0,0,1,.72,25.68,4.35,4.35,0,0,1,1.2,23a5,5,0,0,0,.28-.61A7.43,7.43,0,0,0,1.92,20a15.65,15.65,0,0,0-.16-2.74A22.36,22.36,0,0,0,.72,13c-.16-.46-.33-.91-.45-1.38a8,8,0,0,1,0-4,8.19,8.19,0,0,1,1-2.45A7.41,7.41,0,0,1,2.83,3.37.3.3,0,0,0,3,3.06a2.25,2.25,0,0,1,0-.92A2.71,2.71,0,0,1,5.45,0,2.58,2.58,0,0,1,7.77,1a.93.93,0,0,0,.78.39,7.9,7.9,0,0,1,3.53.95A8.24,8.24,0,0,1,14,3.74a8.13,8.13,0,0,1,1.87,2.89c.35.92.73,1.82,1.17,2.7a19.3,19.3,0,0,0,2.13,3.35,10.41,10.41,0,0,0,1.36,1.42,5.73,5.73,0,0,0,1.67,1.05,4.29,4.29,0,0,1,2.61,2.6,2.67,2.67,0,0,1-.54,2.82,2.94,2.94,0,0,1-1.28.8l-6.35,2.36c-.19.07-.2.1-.15.29a2.63,2.63,0,0,1,0,1.31,2.75,2.75,0,0,1-3,2.11,2.66,2.66,0,0,1-2.11-1.53c-.1-.19-.09-.2-.29-.12L7.77,27Zm10.49-6.85L22,18.77c.2-.07.2-.08.11-.26a1.42,1.42,0,0,0-.69-.68A12,12,0,0,1,19.8,17a12.27,12.27,0,0,1-2.46-2.22,19.35,19.35,0,0,1-1.63-2.19,25.71,25.71,0,0,1-2-3.8q-.25-.58-.47-1.17a5.3,5.3,0,0,0-2.67-2.94,5.22,5.22,0,0,0-3.42-.45,5.42,5.42,0,0,0-4,3.21,5.25,5.25,0,0,0-.29,3.32c.1.43.29.84.42,1.27s.3,1,.44,1.44a21.14,21.14,0,0,1,.61,2.63c.1.66.21,1.32.25,2a17.6,17.6,0,0,1,0,2.11A11,11,0,0,1,4.21,23a6.72,6.72,0,0,1-.52,1.23,1.72,1.72,0,0,0-.2,1.18c0,.19.07.21.26.14L10,23.24l2.91-1.08h0Z"/></g></g></svg>