<svg xmlns="http://www.w3.org/2000/svg" viewBox="0 0 28.71 28.71"><defs><style>.cls-1{fill:#f9f7ef;}</style></defs><title>searchIcon</title><g id="Ebene_2" data-name="Ebene 2"><g id="Navbar"><path class="cls-1" d="M0,11.39a11.39,11.39,0,1,1,22.76.7,11.1,11.1,0,0,1-1.89,5.6.37.37,0,0,0,.06.58q3.58,3.55,7.14,7.13a1.89,1.89,0,1,1-2.63,2.72c-1.05-1-2.09-2.09-3.14-3.14-1.35-1.35-2.71-2.7-4-4.06-.2-.2-.32-.2-.55-.05A11.38,11.38,0,0,1,.21,13.55,10.27,10.27,0,0,1,0,11.39Zm11.38,8.26a8.24,8.24,0,1,0-2.22-.3A8.26,8.26,0,0,0,11.38,19.65Z"/></g></g></svg>